<svg width="100%" height="100%" viewBox="0 0 754 720" fill="currentColor" xmlns="http://www.w3.org/2000/svg" xmlns:xlink="http://www.w3.org/1999/xlink" xml:space="preserve" xmlns:serif="http://www.serif.com/" style="fill-rule:evenodd;clip-rule:evenodd;stroke-linejoin:round;stroke-miterlimit:2;">
    <g transform="matrix(1,0,0,1,-23.4286,-28.3965)">
        <path d="M109.872,616.551L80.408,616.551L80.408,628.214L107.469,628.214L107.469,638.063L80.408,638.063L80.408,652.394L111.179,652.394L111.179,662.251L69.045,662.251L69.045,606.728L109.872,606.728L109.872,616.551ZM147.129,647.152L152.699,652.398C150.762,653.39 148.612,653.899 146.436,653.88C140.169,653.88 131.349,650.02 131.349,634.481C131.349,618.942 140.169,615.082 146.436,615.082C152.699,615.082 161.51,618.942 161.51,634.481C161.51,639.685 160.506,643.529 158.962,646.405L153.085,640.918L147.129,647.152ZM173.347,659.976L167.3,654.286C170.703,649.949 173.11,643.612 173.11,634.485C173.11,608.433 153.778,605.271 146.432,605.271C139.09,605.271 119.766,608.433 119.766,634.485C119.766,660.553 139.09,663.707 146.432,663.707C149.669,663.707 155.396,663.102 160.655,659.98L167.237,666.264L173.347,659.976ZM227.699,642.84C227.699,657.432 218.872,663.703 204.877,663.703C199.78,663.703 192.202,662.471 187.254,656.984C184.241,653.606 183.079,649.082 182.93,643.529L182.93,606.728L194.758,606.728L194.758,642.744C194.758,650.501 199.24,653.884 204.644,653.884C212.617,653.884 215.854,650.024 215.854,643.296L215.854,606.728L227.703,606.728L227.703,642.84L227.699,642.84ZM258.764,619.258L258.935,619.258L265.803,641.217L251.634,641.217L258.764,619.258ZM248.538,650.775L269.037,650.775L272.597,662.255L285.202,662.255L265.654,606.728L252.269,606.728L232.476,662.255L244.691,662.255L248.538,650.775ZM305.846,652.203L333.445,652.203L333.445,662.251L294.233,662.251L294.233,606.728L305.846,606.728L305.846,652.203ZM377.422,637.332L377.422,662.251L365.843,662.251L365.843,606.728L377.422,606.728L377.422,627.753L399.079,627.753L399.079,606.728L410.662,606.728L410.662,662.251L399.079,662.251L399.079,637.332L377.422,637.332ZM432.767,634.481C432.767,618.942 441.595,615.082 447.837,615.082C454.112,615.082 462.931,618.942 462.931,634.481C462.931,650.02 454.112,653.88 447.837,653.88C441.595,653.88 432.767,650.02 432.767,634.481ZM421.183,634.481C421.183,660.549 440.524,663.703 447.837,663.703C455.212,663.703 474.532,660.549 474.532,634.481C474.532,608.429 455.216,605.267 447.837,605.267C440.528,605.267 421.183,608.429 421.183,634.481ZM529.897,642.84C529.897,657.432 521.069,663.703 507.07,663.703C501.965,663.703 494.407,662.471 489.439,656.984C486.431,653.606 485.264,649.082 485.127,643.529L485.127,606.728L496.939,606.728L496.939,642.744C496.939,650.501 501.438,653.884 506.863,653.884C514.823,653.884 518.064,650.024 518.064,643.296L518.064,606.728L529.901,606.728L529.901,642.84L529.897,642.84ZM551.117,645.147C551.221,648.235 552.778,654.12 562.896,654.12C568.375,654.12 574.496,652.809 574.496,646.915C574.496,642.603 570.321,641.429 564.452,640.042L558.493,638.648C549.495,636.564 540.845,634.581 540.845,622.362C540.845,616.17 544.195,605.267 562.199,605.267C579.223,605.267 583.776,616.39 583.859,623.196L572.712,623.196C572.413,620.739 571.479,614.846 561.348,614.846C556.953,614.846 551.694,616.468 551.694,621.495C551.694,625.848 555.251,626.741 557.546,627.284L571.093,630.609C578.671,632.472 585.619,635.568 585.619,645.533C585.619,662.255 568.619,663.707 563.743,663.707C543.502,663.707 540.024,652.028 540.024,645.151L551.117,645.151L551.117,645.147ZM606.719,662.251L595.157,662.251L595.157,606.728L606.719,606.728L606.719,662.251ZM653.054,606.728L663.865,606.728L663.865,662.251L652.282,662.251L629.642,622.644L629.447,622.644L629.447,662.251L618.635,662.251L618.635,606.728L630.849,606.728L652.859,645.392L653.054,645.392L653.054,606.728ZM702.679,632.323L725.854,632.323L725.854,662.251L718.139,662.251L716.981,655.295C714.047,658.665 709.793,663.699 699.658,663.699C686.289,663.699 674.162,654.116 674.162,634.639C674.162,619.498 682.591,605.18 701.276,605.263C718.313,605.263 725.045,616.302 725.626,623.989L714.043,623.989C714.043,621.818 710.087,614.846 701.907,614.846C693.615,614.846 685.97,620.561 685.97,634.78C685.97,649.945 694.246,653.88 702.127,653.88C704.679,653.88 713.208,652.892 715.582,641.665L702.679,641.665L702.679,632.323ZM78.176,718.824C78.176,703.285 86.987,699.409 93.241,699.409C99.504,699.409 108.311,703.285 108.311,718.824C108.311,734.354 99.504,738.247 93.241,738.247C86.987,738.247 78.176,734.354 78.176,718.824ZM66.58,718.824C66.58,744.867 85.903,748.079 93.245,748.079C100.591,748.079 119.915,744.871 119.915,718.824C119.915,692.776 100.587,689.61 93.245,689.61C85.903,689.61 66.58,692.781 66.58,718.824ZM151.69,716.96L151.69,700.633L160.891,700.633C168.076,700.633 171.097,702.895 171.097,708.311C171.097,710.785 171.097,716.96 162.431,716.96L151.69,716.96ZM151.69,726.564L164.98,726.564C179.908,726.564 182.681,713.868 182.681,708.851C182.681,697.956 176.202,691.066 165.444,691.066L140.098,691.066L140.098,746.594L151.69,746.594L151.69,726.564ZM214.153,716.96L214.153,700.633L223.337,700.633C230.53,700.633 233.547,702.895 233.547,708.311C233.547,710.785 233.547,716.96 224.902,716.96L214.153,716.96ZM214.153,726.564L227.45,726.564C242.367,726.564 245.16,713.868 245.16,708.851C245.16,697.956 238.673,691.066 227.923,691.066L202.552,691.066L202.552,746.594L214.153,746.594L214.153,726.564ZM274.158,718.824C274.158,703.285 282.948,699.409 289.236,699.409C295.47,699.409 304.302,703.285 304.302,718.824C304.302,734.354 295.474,738.247 289.236,738.247C282.948,738.247 274.158,734.354 274.158,718.824ZM262.558,718.824C262.558,744.867 281.878,748.079 289.236,748.079C296.561,748.079 315.885,744.871 315.885,718.824C315.885,692.776 296.561,689.61 289.236,689.61C281.878,689.61 262.558,692.781 262.558,718.824ZM347.453,715.499L347.453,700.633L361.892,700.633C368.698,700.633 370.001,704.987 370.001,707.921C370.001,713.416 367.075,715.499 361.041,715.499L347.453,715.499ZM336.052,746.598L347.453,746.598L347.453,724.867L359.414,724.867C368.005,724.867 368.478,727.793 368.478,735.371C368.478,741.078 368.914,743.937 369.69,746.598L382.535,746.598L382.535,745.1C380.062,744.182 380.062,742.165 380.062,734.076C380.062,723.684 377.588,721.999 373.031,719.982C378.518,718.143 381.597,712.872 381.597,706.775C381.597,701.969 378.908,691.075 364.137,691.075L336.052,691.075L336.052,746.598ZM424.806,746.598L413.215,746.598L413.215,700.894L396.447,700.894L396.447,691.071L441.595,691.071L441.595,700.894L424.806,700.894L424.806,746.598ZM503.829,727.166C503.829,741.775 495.018,748.079 481.01,748.079C475.934,748.079 468.356,746.789 463.396,741.31C460.379,737.924 459.221,733.433 459.084,727.872L459.084,691.071L470.896,691.071L470.896,727.087C470.896,734.819 475.386,738.247 480.794,738.247C488.755,738.247 491.996,734.354 491.996,727.635L491.996,691.066L503.833,691.066L503.833,727.166L503.829,727.166ZM559.945,691.071L570.79,691.071L570.79,746.598L559.169,746.598L536.512,706.991L536.388,706.991L536.388,746.598L525.543,746.598L525.543,691.071L537.758,691.071L559.808,729.718L559.945,729.718L559.945,691.071ZM603.507,746.598L591.874,746.598L591.874,691.071L603.507,691.071L603.507,746.598ZM648.779,746.598L637.187,746.598L637.187,700.894L620.44,700.894L620.44,691.071L665.567,691.071L665.567,700.894L648.779,700.894L648.779,746.598ZM709.407,746.598L697.79,746.598L697.79,725.634L678.636,691.071L692.312,691.071L703.829,715.201L714.835,691.071L727.959,691.071L709.407,725.771L709.407,746.598ZM397.211,28.397L23.429,212.492L23.429,298.969L65.264,298.969L65.264,558.372L726.344,558.372L726.344,298.969L776.58,298.969L776.58,212.492L397.211,28.397ZM645.467,480.247L146.158,480.247L146.158,243.176L397.211,114.873L645.467,243.176L645.467,480.247Z"/>
        <path d="M511.552,326.838L280.06,326.838L280.06,243.176L511.552,243.176L511.552,326.838ZM511.552,446.832L280.06,446.832L280.06,363.116L511.552,363.116L511.552,446.832Z"/>
    </g>
</svg>
