<svg width="100%" height="100%" viewBox="0 0 140 137" fill="currentColor" version="1.1" xmlns="http://www.w3.org/2000/svg" xmlns:xlink="http://www.w3.org/1999/xlink" xml:space="preserve" xmlns:serif="http://www.serif.com/" style="fill-rule:evenodd;clip-rule:evenodd;stroke-linejoin:round;stroke-miterlimit:2;">
    <g transform="matrix(1,0,0,1,-56.25,-56.9167)">
        <g transform="matrix(4.16667,0,0,4.16667,0,0)">
            <path d="M13.968,42.594L14.583,42.594C14.983,42.594 15.281,42.594 15.513,42.803C15.716,42.988 15.817,43.233 15.817,43.531C15.817,44.014 15.46,44.372 14.911,44.372L14.511,44.372L15.77,46.417L16.265,46.417L15.239,44.759C15.836,44.717 16.265,44.169 16.265,43.525C16.265,43.083 16.056,42.66 15.716,42.421C15.418,42.212 15.096,42.177 14.696,42.177L13.557,42.177L13.557,46.417L13.968,46.417L13.968,42.594Z"/>
        </g>
        <g transform="matrix(4.16667,0,0,4.16667,0,0)">
            <path d="M18.24,44.08L18.24,42.594L20.023,42.594L20.023,42.177L17.822,42.177L17.822,46.417L20.023,46.417L20.023,46.006L18.24,46.006L18.24,44.497L20.023,44.497L20.023,44.08L18.24,44.08Z"/>
        </g>
        <g transform="matrix(4.16667,0,0,4.16667,0,0)">
            <path d="M21.608,46.417L22.115,45.087L24,45.087L24.506,46.417L24.954,46.417L23.314,42.177L22.813,42.177L21.167,46.417L21.608,46.417ZM23.857,44.706L22.258,44.706L23.051,42.577L23.857,44.706Z"/>
        </g>
        <g transform="matrix(4.16667,0,0,4.16667,0,0)">
            <path d="M28.072,46.417L28.072,46.006L26.581,46.006L26.581,42.177L26.164,42.177L26.164,46.417L28.072,46.417Z"/>
        </g>
        <g transform="matrix(4.16667,0,0,4.16667,0,0)">
            <path d="M30.169,46.417L30.169,42.594L31.016,42.594L31.016,42.177L28.904,42.177L28.904,42.594L29.752,42.594L29.752,46.417L30.169,46.417Z"/>
        </g>
        <g transform="matrix(4.16667,0,0,4.16667,0,0)">
            <path d="M32.337,44.276C32.337,43.757 32.588,43.233 32.988,42.892C33.293,42.636 33.662,42.499 34.055,42.499C35.04,42.499 35.803,43.322 35.803,44.264C35.803,45.308 35.04,46.101 34.086,46.101C33.113,46.101 32.337,45.326 32.337,44.276ZM31.902,44.27C31.902,45.535 32.838,46.501 34.055,46.501C34.694,46.501 35.243,46.256 35.671,45.786C36.047,45.374 36.232,44.873 36.232,44.27C36.232,43.667 36.012,43.137 35.583,42.713C35.165,42.302 34.658,42.093 34.061,42.093C33.477,42.093 32.976,42.302 32.564,42.708C32.135,43.131 31.902,43.68 31.902,44.27Z"/>
        </g>
        <g transform="matrix(4.16667,0,0,4.16667,0,0)">
            <path d="M38.055,42.594L38.67,42.594C39.069,42.594 39.368,42.594 39.6,42.803C39.803,42.988 39.904,43.233 39.904,43.531C39.904,44.014 39.546,44.372 38.998,44.372L38.598,44.372L39.857,46.417L40.351,46.417L39.326,44.759C39.922,44.717 40.351,44.169 40.351,43.525C40.351,43.083 40.143,42.66 39.803,42.421C39.504,42.212 39.182,42.177 38.783,42.177L37.644,42.177L37.644,46.417L38.055,46.417L38.055,42.594Z"/>
        </g>
        <g transform="matrix(4.16667,0,0,4.16667,0,0)">
            <path d="M27.855,37.294L27.855,27.147L38.411,37.294L27.855,37.294ZM24.936,37.263L17.324,37.263L17.324,16.868L24.936,16.868L24.936,37.263ZM27.855,16.899L30.864,16.899C33.641,17.182 35.655,19.352 35.631,22.036C35.607,24.695 33.615,26.805 30.864,27.084L27.855,27.082L27.855,16.899ZM13.5,13.66L13.5,40.66L40.5,40.66L40.5,13.66L13.5,13.66Z"/>
        </g>
        <g transform="matrix(4.16667,0,0,4.16667,0,0)">
            <path d="M40.943,41.796C41.117,41.796 41.196,41.841 41.196,41.959C41.196,42.08 41.117,42.114 40.943,42.114L40.778,42.114L40.778,41.796L40.943,41.796ZM40.968,41.707L40.645,41.707L40.645,42.589L40.778,42.589L40.778,42.202L40.984,42.202L41.17,42.589L41.323,42.589L41.125,42.182C41.253,42.165 41.334,42.073 41.334,41.951C41.334,41.781 41.212,41.707 40.968,41.707ZM41.628,42.163C41.628,42.349 41.562,42.514 41.434,42.639C41.298,42.772 41.125,42.842 40.945,42.842C40.765,42.842 40.595,42.772 40.464,42.641C40.334,42.51 40.263,42.34 40.263,42.161C40.263,41.98 40.337,41.809 40.469,41.674C40.595,41.547 40.76,41.476 40.945,41.476C41.131,41.476 41.303,41.547 41.434,41.678C41.56,41.804 41.628,41.976 41.628,42.163ZM40.945,41.393C40.737,41.393 40.55,41.47 40.409,41.614C40.261,41.764 40.179,41.959 40.179,42.161C40.179,42.365 40.259,42.555 40.405,42.701C40.55,42.849 40.742,42.928 40.945,42.928C41.146,42.928 41.341,42.847 41.492,42.699C41.635,42.557 41.712,42.371 41.712,42.161C41.712,41.955 41.635,41.762 41.492,41.619C41.346,41.47 41.155,41.393 40.945,41.393Z"/>
        </g>
    </g>
</svg>
